<?xml version="1.0" encoding="utf-8"?>
<!-- Generator: Adobe Illustrator 26.2.1, SVG Export Plug-In . SVG Version: 6.00 Build 0)  -->
<svg version="1.1" id="Layer_1" xmlns="http://www.w3.org/2000/svg" xmlns:xlink="http://www.w3.org/1999/xlink" x="0px" y="0px"
	 viewBox="0 0 512 512" style="enable-background:new 0 0 512 512;" xml:space="preserve">
<style type="text/css">
	.st0{fill:#0A72CC;}
	.st1{fill:#F0F0F0;}
</style>
<g id="XMLID_6531_">
	<path id="XMLID_6534_" d="M512,256c0-29.9-5.2-58.6-14.7-85.3H14.7C5.2,197.4,0,226.1,0,256c0,29.9,5.2,58.6,14.7,85.3h482.7
		C506.8,314.6,512,285.9,512,256z"/>
	<path id="XMLID_6533_" class="st0" d="M256,0C144.8,0,49.9,71.4,14.7,170.7h482.7C462.1,71.4,367.2,0,256,0z"/>
	<path id="XMLID_6532_" class="st1" d="M14.7,341.3C49.9,440.7,144.8,512,256,512c111.2,0,206.1-71.3,241.3-170.7H14.7z"/>
</g>
</svg>
